<?xml version="1.0" encoding="utf-8"?>
<!-- Generator: Adobe Illustrator 19.2.1, SVG Export Plug-In . SVG Version: 6.00 Build 0)  -->
<svg version="1.1" id="layer" xmlns="http://www.w3.org/2000/svg" xmlns:xlink="http://www.w3.org/1999/xlink" x="0px" y="0px"
	 viewBox="0 0 652 652" style="enable-background:new 0 0 652 652;" xml:space="preserve">
<path d="M291.4,335.3c-0.2,8.6-6.3,16.7-18.3,16.7c-10.1,0-18.5-7.4-19-17h10.7c0.2,4.8,3.6,7.5,9.3,7.3c5.1-0.2,7.5-4.7,7.6-8
	c0.1-4-0.6-7.7-12.1-11.8c-9.7-3.3-14.4-7.5-14.4-17c0-9.5,8.9-15.3,16.6-15.4c12.8-0.2,18.7,8,18.5,14.9h-10.5
	c-0.3-3.5-3.8-6-7.5-6c-3.8,0-7.5,2.6-7.5,7.5c0,5.4,3.3,7.3,11.1,10.1C289.6,321,291.5,327.5,291.4,335.3z M176.3,335.3
	c-0.2,8.6-6.3,16.7-18.3,16.7c-10.1,0-18.5-7.4-19-17h10.7c0.2,4.8,3.6,7.5,9.3,7.3c5.1-0.2,7.5-4.7,7.6-8c0.1-4-0.6-7.7-12.1-11.8
	c-9.7-3.4-14.5-7.5-14.5-17.1c0-9.5,8.9-15.3,16.6-15.4c12.8-0.2,18.7,8,18.5,14.9h-10.5c-0.3-3.5-3.8-6-7.5-6
	c-3.8,0-7.5,2.6-7.5,7.5c0,5.4,3.3,7.3,11.1,10.1C174.5,321,176.5,327.5,176.3,335.3z M616.4,291.6c2.7,0,5,2.2,5,4.9c0,0,0,0,0,0
	c0,2.7-2.2,4.9-4.9,4.9c-0.1,0-0.2,0-0.3,0c-2.8,0-5-2.2-5.1-4.9c0,0,0-0.1,0-0.1C611.3,293.7,613.6,291.6,616.4,291.6L616.4,291.6z
	 M616.3,292.6c-2.1,0-3.8,1.7-3.8,3.8c0,0,0,0.1,0,0.1c0,2.2,1.6,4,3.8,4c2.2,0.1,3.8-1.7,3.8-3.9S618.6,292.6,616.3,292.6z
	 M615.5,299.1h-1.2v-4.9c0.6-0.1,1.2-0.2,1.9-0.2c0.6,0,1.2,0.1,1.7,0.4c0.3,0.3,0.5,0.7,0.5,1.1c-0.1,0.6-0.5,1-1,1.2v0.1
	c0.5,0.2,0.8,0.5,0.9,1.2c0.2,0.8,0.2,1.1,0.4,1.2h-1.2c-0.2-0.4-0.3-0.8-0.4-1.2c-0.1-0.5-0.4-0.8-1-0.8h-0.5L615.5,299.1
	L615.5,299.1z M615.6,296.4h0.5c0.6,0,1.2-0.2,1.2-0.7c0-0.5-0.3-0.8-1-0.8c-0.2,0-0.4,0-0.6,0.1L615.6,296.4L615.6,296.4z
	 M443.9,291.8h-9.1V350h31.9v-8.4h-22.3l-0.5-0.4V291.8z M388.8,291.8h-9.1V350h31.9v-8.4h-22.3l-0.5-0.4V291.8z M211.2,300.6
	l-0.5-0.4h-15.5v-8.4h41v8.4h-15.5l-0.5,0.4V350h-9.1V300.6z M523.9,291.8H492V350h31.9v-8.4h-22.3l-0.5-0.4v-16.3l0.5-0.4h18.6V316
	h-18.6l-0.5-0.5v-14.9l0.5-0.4h22.3V291.8z M349.8,291.8h-31.9V350h31.9v-8.4h-22.3l-0.4-0.4v-16.3l0.4-0.4h18.6V316h-18.6l-0.4-0.5
	v-14.9l0.4-0.4h22.3V291.8z M115.6,291.9H83.7V350h31.9v-8.3H93.2l-0.5-0.5v-16.3l0.5-0.4h18.6V316H93.2l-0.5-0.4v-14.9l0.5-0.5
	h22.3V291.9z M562.8,316l-0.4-0.4v-14.9l0.4-0.4h5.8c6.8,0,9.1,4.3,9.1,7.7c0,6.8-4.4,8.2-9.1,8.1L562.8,316L562.8,316z
	 M567.2,291.9c-3.5,0-12.4,0-14,0.3V350h9.1v-24.7l0.4-0.4h4.4c4.1,0,5.6,2.7,7.5,6.8c2.5,5.5,3.7,10.4,6,18.4h10
	c-0.9-3-4.3-13.2-7.2-21.1c-1.7-4.7-4-7.2-6.6-7.9v-0.2c4.8-1.9,10-5.2,10.3-13.8c0.2-4.4-0.8-8.2-3.6-10.9
	C580,292.8,574.5,291.8,567.2,291.9 M33.5,341.6H31l-0.4-0.5v-16.3l0.4-0.4h5.7c6.4,0,10.8,3.1,10.8,8.9c0,4.6-2.1,8.2-10.3,8.2
	C35.7,341.7,34.5,341.6,33.5,341.6 M31,316l-0.4-0.4v-14.9l0.4-0.4h5.7c6.8,0,8.9,3.4,8.9,7.5c0,5-2,8.3-8.6,8.3
	C36.9,316,31,316,31,316L31,316z M36.1,291.9h-0.5c-3.5,0-12.4,0-14.2,0.3v57.7c1.8,0.3,10.8,0.4,14.6,0.4c9.3,0,12.8-1,16.4-4.4
	c3-2.7,4.4-6.8,4.4-11.8c0-8.6-4-12.5-9.2-14.5v-0.2c3.9-2.1,6.9-5.6,6.9-12.9c0-4.6-1.6-7.9-4.3-10.4
	C46.9,293,42.3,291.9,36.1,291.9"/>
</svg>
