<svg xmlns="http://www.w3.org/2000/svg" width="102.62" height="33.205" viewBox="0 0 102.62 33.205"><g transform="translate(-669.349 -20.297)"><path d="M350.307,4.664h0l7.29,18.278h1.785l4.666-12.379,4.637,12.379h1.781L378.342,2H375.55l-5.113,13.9L365.652,2h-4.816l1.963,5.28-3.269,8.979L354.15,2h-4.9Z" transform="translate(372.215 18.593)" fill="#ff6786"/><g transform="translate(669.349 20.297)"><g transform="translate(17.708)"><path d="M214.7,19.329c3.775,0,5.528-3.133,5.528-8.59s-1.753-8.59-5.528-8.59-5.528,3.131-5.528,8.59,1.754,8.59,5.528,8.59M214.7,0a10.6,10.6,0,0,1,10.847,10.739,10.848,10.848,0,0,1-21.695,0A10.6,10.6,0,0,1,214.7,0" transform="translate(-191.142)" fill="#ff6786"/><path d="M565.621,11.636h3.151c2.911,0,4.576-1.134,4.576-3.7,0-2.356-1.6-3.609-4.576-3.609h-3.151Zm0,11.244h-4.755V2h9.6c4.279,0,7.875,1.581,7.875,5.637,0,3.519-3.151,5.132-6.507,5.221v.058a5.216,5.216,0,0,1,5.05,3.728l.983,2.715a12.46,12.46,0,0,0,1.931,3.519h-5.351a16.943,16.943,0,0,1-1.4-3.1L571.891,16.5c-.653-1.88-1.486-2.535-3.567-2.535h-2.7Z" transform="translate(-494.885 -1.703)" fill="#ff6786"/><path d="M130.921,20.435h-7.489V2h-4.755V22.881h15.07c-1.158-1.162-1.086-2.446-2.826-2.446" transform="translate(-118.677 -1.703)" fill="#ff6786"/></g><path d="M0,2V22.881H4.755v-9.4h7.637V11.039H4.755V4.447H14.978V2Z" transform="translate(0 -1.703)" fill="#ff6786"/></g><g transform="translate(683.56 47.263)"><path d="M95.239,190.029v-5.606H97.2c1.113,0,2.018.384,2.018,1.418a1.367,1.367,0,0,1-1.418,1.29v.016c.9.032,1.65.457,1.65,1.369,0,1.057-.889,1.514-2.058,1.514Zm.785-3.116h1.041c.745,0,1.338-.232,1.338-1.025,0-.7-.513-1-1.322-1H96.024Zm0,.472v2.179h1.217c.825,0,1.394-.3,1.394-1.081s-.577-1.1-1.5-1.1Z" transform="translate(-95.239 -183.87)" fill="#ff6786"/><path d="M130.75,196.681c0-.641-.328-.9-.977-.9-.481,0-.857.192-.857.561a.431.431,0,0,0,.1.272l-.392.264a.722.722,0,0,1-.232-.521c0-.537.481-1.033,1.474-1.033,1.121,0,1.634.521,1.634,1.33V199.3h-.665l-.072-.921a1.541,1.541,0,0,1-1.458,1,1.031,1.031,0,0,1-1.153-1.033c0-.857.881-1.081,1.9-1.25l.7-.12Zm-.641.777c-.713.112-1.21.3-1.21.825,0,.424.28.6.673.6a1.352,1.352,0,0,0,1.177-1.426v-.1Z" transform="translate(-123.237 -193.14)" fill="#ff6786"/><path d="M159.048,195.265a.812.812,0,0,1,.881.849.9.9,0,0,1-.248.641l-.368-.28a.537.537,0,0,0,.1-.329.382.382,0,0,0-.433-.408c-.6,0-1.257.977-1.257,1.85v1.666h-.753v-3.9h.721l.032,1.129A1.56,1.56,0,0,1,159.048,195.265Z" transform="translate(-147.762 -193.094)" fill="#ff6786"/><path d="M181.8,199.38A1.857,1.857,0,0,1,179.9,197.4a1.92,1.92,0,0,1,1.882-2.082c1.113,0,1.746.761,1.746,1.994h-2.851c.008,1.073.529,1.586,1.3,1.586a1.165,1.165,0,0,0,1.177-.921l.361.112A1.617,1.617,0,0,1,181.8,199.38Zm-1.105-2.451h2.026c-.016-.609-.216-1.193-.953-1.193C181.187,195.735,180.786,196.168,180.7,196.929Z" transform="translate(-167.265 -193.14)" fill="#ff6786"/><path d="M223.728,196.681c0-.641-.328-.9-.977-.9-.481,0-.857.192-.857.561a.431.431,0,0,0,.1.272l-.392.264a.722.722,0,0,1-.232-.521c0-.537.48-1.033,1.474-1.033,1.121,0,1.634.521,1.634,1.33V199.3h-.665l-.072-.921a1.541,1.541,0,0,1-1.458,1,1.031,1.031,0,0,1-1.153-1.033c0-.857.881-1.081,1.9-1.25l.7-.12Zm-.641.777c-.713.112-1.209.3-1.209.825,0,.424.28.6.673.6a1.352,1.352,0,0,0,1.177-1.426v-.1Z" transform="translate(-202.341 -193.14)" fill="#ff6786"/><path d="M250.168,187.792h-.753v-6h.753Z" transform="translate(-226.41 -181.633)" fill="#ff6786"/><path d="M259.723,188.366h.633l.024-1.041.729-.272v1.313h1.386l-.04.433h-1.346v2.379c0,.449.2.681.561.681.408,0,.577-.3.633-.881l.4.048a1.219,1.219,0,0,1-1.233,1.322,1.035,1.035,0,0,1-1.129-1.113l.016-2.435h-.633Z" transform="translate(-235.18 -186.108)" fill="#ff6786"/><path d="M297.4,195.855h.561l-1.73,3.933h-.369l-1.73-3.933h.817l1.233,2.891Z" transform="translate(-264.456 -193.596)" fill="#ff6786"/><path d="M323.793,196.681c0-.641-.328-.9-.977-.9-.481,0-.857.192-.857.561a.432.432,0,0,0,.1.272l-.392.264a.723.723,0,0,1-.232-.521c0-.537.48-1.033,1.474-1.033,1.121,0,1.634.521,1.634,1.33V199.3h-.665l-.072-.921a1.541,1.541,0,0,1-1.458,1,1.031,1.031,0,0,1-1.153-1.033c0-.857.881-1.081,1.9-1.25l.7-.12Zm-.641.777c-.713.112-1.209.3-1.209.825,0,.424.28.6.673.6a1.352,1.352,0,0,0,1.177-1.426v-.1Z" transform="translate(-287.475 -193.14)" fill="#ff6786"/><path d="M352.091,195.265a.812.812,0,0,1,.881.849.9.9,0,0,1-.248.641l-.368-.28a.537.537,0,0,0,.1-.329.382.382,0,0,0-.432-.408c-.6,0-1.258.977-1.258,1.85v1.666h-.753v-3.9h.721l.032,1.129A1.56,1.56,0,0,1,352.091,195.265Z" transform="translate(-312 -193.094)" fill="#ff6786"/><path d="M386.214,196.3c0,.3.184.433.665.561l.665.16c.777.2,1.089.513,1.089,1.1,0,.761-.681,1.266-1.562,1.266a1.857,1.857,0,0,1-1.73-.937l.345-.328a1.571,1.571,0,0,0,1.385.825c.489,0,.889-.2.889-.609,0-.368-.232-.488-.729-.617l-.577-.136c-.761-.184-1.089-.513-1.089-1.073,0-.737.641-1.185,1.45-1.185a1.781,1.781,0,0,1,1.562.809l-.312.376a1.423,1.423,0,0,0-1.25-.745C386.526,195.759,386.214,195.968,386.214,196.3Z" transform="translate(-342.053 -193.14)" fill="#ff6786"/><path d="M414.034,184.259c0-.641-.329-.9-.977-.9-.481,0-.857.192-.857.561a.431.431,0,0,0,.1.272l-.392.264a.722.722,0,0,1-.232-.521c0-.537.48-1.033,1.474-1.033,1.121,0,1.634.521,1.634,1.329v2.651h-.665l-.072-.921a1.542,1.542,0,0,1-1.458,1,1.031,1.031,0,0,1-1.153-1.033c0-.857.881-1.081,1.9-1.25l.7-.12Zm-.641.777c-.713.112-1.21.3-1.21.825,0,.425.28.6.673.6a1.352,1.352,0,0,0,1.177-1.426v-.1Zm-.192-4.317a.849.849,0,1,1-.865.841A.867.867,0,0,1,413.2,180.719Zm0,.344a.473.473,0,0,0-.489.5.489.489,0,1,0,.977,0A.473.473,0,0,0,413.2,181.063Z" transform="translate(-364.251 -180.719)" fill="#ff6786"/><path d="M452.256,199.38a1.857,1.857,0,0,1-1.906-1.978,1.92,1.92,0,0,1,1.882-2.082c1.113,0,1.746.761,1.746,1.994h-2.851c.008,1.073.529,1.586,1.3,1.586a1.165,1.165,0,0,0,1.177-.921l.36.112A1.617,1.617,0,0,1,452.256,199.38Zm-1.105-2.451h2.027c-.016-.609-.216-1.193-.953-1.193C451.64,195.735,451.239,196.168,451.151,196.929Z" transform="translate(-397.362 -193.14)" fill="#ff6786"/><path d="M480.7,195.4l.032.921a1.447,1.447,0,0,1,1.41-1,1.232,1.232,0,0,1,1.281,1.394V199.3h-.753v-2.443c0-.521-.24-.993-.849-.993-.585,0-1.089.545-1.089,1.45V199.3h-.753v-3.9Z" transform="translate(-422.574 -193.14)" fill="#ff6786"/><path d="M509.863,185.95l-.569.513v1.329h-.753v-6h.753v4.093l2.146-1.994h.7l-1.754,1.586,1.81,2.315h-.889Z" transform="translate(-446.871 -181.633)" fill="#ff6786"/><path d="M535.3,199.38A1.857,1.857,0,0,1,533.4,197.4a1.92,1.92,0,0,1,1.882-2.082c1.113,0,1.746.761,1.746,1.994h-2.852c.008,1.073.529,1.586,1.3,1.586a1.165,1.165,0,0,0,1.177-.921l.36.112A1.617,1.617,0,0,1,535.3,199.38Zm-1.105-2.451h2.026c-.016-.609-.216-1.193-.953-1.193C534.685,195.735,534.285,196.168,534.2,196.929Z" transform="translate(-468.016 -193.14)" fill="#ff6786"/><path d="M563.782,187.792h-.753v-6h.753Z" transform="translate(-493.228 -181.633)" fill="#ff6786"/><path d="M572.8,188.366h.633l.024-1.041.729-.272v1.313h1.386l-.04.433h-1.345v2.379c0,.449.2.681.561.681.409,0,.577-.3.633-.881l.4.048a1.219,1.219,0,0,1-1.233,1.322,1.035,1.035,0,0,1-1.129-1.113l.016-2.435H572.8Z" transform="translate(-501.541 -186.108)" fill="#ff6786"/></g></g></svg>